<svg xmlns="http://www.w3.org/2000/svg" version="1.0" viewBox="0 0 327 483"><path fill="none" d="M-194-10h744v496h-744z"/><path fill="white" d="M60 155c5-13 0-38 2-53 1-9 7-18 12-27 3-9 8-21 19-24-3 9-5 9-8 17l-5 16c-3 8-7 11-9 18-3 11-2 37-2 49 0 3 0 7-3 10-4 6-18 2-17 17 0 1 0 4 2 6 6 13 31 18 43 24 13 7 10 15 22 22 13 9 45 9 61 8 4-2 12-2 17-5 12-4 14-16 26-24 10-4 30-7 39-21 2-1 3-4 3-6 5-16-15-10-20-21-3-7 2-32 3-39l5 4v14l1 15c17-3 16-23 17-36 4-36 4-59-23-87-15-15-36-27-57-30h-14l-11-2-13 2c-20 1-34 1-51 10-12 6-20 14-30 24-23 24-28 54-23 86 2 12 5 26 14 33zm51-45c22-2 38 13 30 35-6 13-20 24-36 27-14 1-20-8-20-20 0-20 3-36 26-42zm87 0c19 0 28 15 30 32l2 12c-2 10-13 18-24 19-17 0-37-25-36-41 4-13 16-19 28-22zm-28 92-17-3-14 4c-1-10 4-25 8-36 2-3 5-9 8-10 6-2 8 6 8 9 3 12 7 24 7 36z"/><path fill="white" d="M231 226c-5 1-11 1-15 4-16 11-8 37-22 53-6 8-20 11-31 11-20 0-45-2-55-21-7-14 3-28-14-44-3-2-7-6-11-6s-3 6-3 9l2 30c0 23 6 23 17 36 6 9 11 18 22 23 14 4 29 4 43 3 11 0 17 1 28-5s30-30 33-42l1-21c4-15 5-12 5-30z"/><path fill="white" d="M121 273c0 3 0 8 2 10s7 3 9 2c1-2-2-8-3-9-1-2-4-3-8-3zm12 1 2 8 3 6c6 3 9-12 5-14h-10zm19 2c-5 3-5 8-3 11s5 3 8 2l4-8c0-3-2-6-9-5zm-17-20c4 2 11 0 11 0v-9c-2-6-7-8-10-5l-1 14zm23-15c-1 0-6-1-8 1-3 3-4 12 0 15 3 1 8 2 10-4v-5l-2-7zm16 48c1 1 3-1 4-3 11-10-11-19-8-3 0 0 2 6 4 6zm-44-50h-6c-12 6 3 26 8 12v-4l-2-8zm34 2s-2 15-1 16c2 2 8 1 10 0v-13c-1-3-3-2-9-3zm15-2-1 8c0 4 1 13 8 9l2-14c-2-2-5-2-9-3zm-18 120 41 17 73-37c16 6 36 1 46-14 7-11 8-24 4-35l-15 22c-4 6-12 7-17 4l-17-11c-6-4-7-11-4-16l16-24c-13 0-25 6-33 18-5 7-7 15-6 23-9 7-48 30-88 53zm15 31-41-16-68 34c-16-4-33 2-42 16-8 11-8 24-4 35l15-23c4-5 11-7 17-3l17 11c5 3 7 11 3 16l-16 23c13 0 26-6 33-17 7-9 8-19 6-29l80-47z"/><path fill="white" fill-rule="evenodd" d="m127 365 6-7 2-8 122 58h9l34 15-9 13-35-13-6-7-123-51zm7-22c0-5-12-2-21-7-21-8-63-46-75-47-30-5-51 21-29 41 11 9 67 15 92 26 7 3 15 15 18 13 8-7 15-17 15-26z"/></svg>
