<?xml version="1.0" standalone="no"?>
<!DOCTYPE svg PUBLIC "-//W3C//DTD SVG 20010904//EN"
 "http://www.w3.org/TR/2001/REC-SVG-20010904/DTD/svg10.dtd">
<svg version="1.0" xmlns="http://www.w3.org/2000/svg"
 width="966.000000pt" height="966.000000pt" viewBox="0 0 966.000000 966.000000"
 preserveAspectRatio="xMidYMid meet">
<metadata>
Created by potrace 1.14, written by Peter Selinger 2001-2017
</metadata>
<g transform="translate(0.000000,966.000000) scale(0.100000,-0.100000)"
fill="#000000" stroke="none">
<path d="M4770 9657 c-3 -3 -36 -8 -75 -12 -38 -3 -86 -9 -105 -11 -19 -3 -60
-6 -90 -8 -30 -2 -100 -7 -155 -11 -55 -3 -111 -8 -125 -10 -14 -2 -54 -7 -90
-10 -36 -4 -74 -9 -85 -11 -11 -3 -35 -7 -54 -10 -138 -23 -296 -76 -423 -140
-40 -21 -76 -37 -80 -36 -5 1 -8 -3 -8 -8 0 -6 -5 -10 -10 -10 -11 0 -136 -76
-156 -95 -6 -5 -22 -17 -34 -25 -77 -52 -329 -306 -421 -424 -13 -16 -34 -41
-46 -54 -13 -14 -23 -28 -23 -32 0 -4 -11 -20 -25 -36 -14 -16 -25 -34 -25
-41 0 -6 -4 -13 -8 -15 -10 -4 -70 -105 -99 -168 -44 -94 -53 -117 -79 -190
-27 -79 -61 -211 -70 -270 -3 -19 -7 -42 -9 -50 -26 -99 -27 -558 -1 -696 2
-11 7 -44 10 -75 4 -31 9 -67 11 -80 3 -13 8 -37 11 -54 2 -16 9 -46 14 -65 5
-19 11 -44 13 -55 2 -11 7 -29 11 -40 5 -11 13 -33 19 -50 38 -105 94 -201
156 -267 27 -30 50 -36 52 -15 0 6 2 19 4 27 22 89 28 158 28 310 0 74 -4 203
-8 285 -15 289 -9 412 24 508 20 56 89 201 134 282 70 124 92 167 114 230 47
131 109 238 177 308 36 37 116 92 116 80 0 -4 5 -2 12 5 7 7 20 12 29 12 15 0
13 -8 -12 -62 -16 -35 -36 -76 -45 -93 -63 -115 -89 -183 -133 -340 -48 -168
-81 -247 -137 -321 -52 -69 -95 -174 -109 -264 -3 -19 -8 -51 -12 -70 -3 -19
-7 -237 -7 -485 -2 -434 -2 -452 -23 -495 -31 -68 -70 -98 -169 -131 -49 -17
-94 -31 -99 -33 -28 -5 -75 -50 -93 -88 -16 -35 -19 -60 -17 -129 2 -80 5 -92
39 -148 93 -152 256 -245 706 -401 130 -45 211 -91 271 -153 29 -31 129 -171
129 -181 0 -25 160 -175 188 -176 6 0 12 -3 12 -8 0 -20 164 -85 270 -107 194
-41 307 -50 610 -49 231 0 349 6 371 20 4 2 24 6 45 9 22 3 64 11 94 17 30 6
60 12 65 14 6 1 53 22 105 47 105 50 175 113 272 242 63 85 168 188 224 221
22 13 119 51 215 85 278 97 418 173 519 281 92 98 114 137 127 225 14 92 -12
154 -78 189 -15 7 -71 30 -125 50 -55 20 -110 44 -124 52 -58 36 -110 121 -96
157 3 8 1 17 -3 19 -9 6 -7 150 3 236 4 30 9 75 12 100 5 45 10 73 19 130 3
17 7 45 10 63 9 52 26 141 30 154 3 8 22 -4 49 -30 l44 -42 6 -185 c5 -171 11
-275 21 -325 2 -11 4 -30 4 -42 1 -28 6 -28 76 -2 59 22 165 114 165 143 0 8
3 16 8 18 8 4 48 119 56 163 12 67 23 164 31 275 3 47 8 99 10 115 20 168 28
650 11 775 -7 55 -19 116 -41 214 -16 68 -66 197 -114 291 -30 61 -58 112 -61
115 -3 3 -18 25 -34 50 -91 140 -259 329 -376 420 -24 19 -58 47 -76 63 -17
15 -36 27 -42 27 -6 0 -12 4 -14 9 -1 5 -46 37 -98 71 -140 91 -402 216 -495
235 -11 3 -31 9 -45 15 -74 30 -211 48 -373 49 -92 1 -173 4 -180 6 -27 10
-210 28 -217 22z m-815 -2201 c75 -10 90 -14 152 -39 234 -95 348 -303 297
-545 -32 -151 -154 -331 -299 -437 -22 -17 -49 -38 -59 -47 -11 -10 -23 -18
-28 -18 -4 0 -29 -13 -55 -29 -56 -34 -187 -87 -228 -92 -5 -1 -21 -6 -35 -11
-14 -5 -57 -10 -95 -10 -175 -1 -285 85 -330 259 -12 44 -14 95 -11 218 5 169
8 192 33 294 48 199 175 346 363 422 112 44 168 51 295 35z m1739 -17 c55 -14
155 -69 200 -111 47 -42 114 -136 148 -208 30 -63 65 -200 73 -280 6 -65 12
-112 20 -160 13 -72 12 -96 -2 -145 -42 -141 -202 -276 -382 -321 -68 -17
-146 -14 -197 7 -82 34 -102 43 -139 68 -22 14 -46 32 -53 39 -7 6 -17 12 -21
12 -15 0 -146 138 -200 210 -109 146 -175 307 -174 426 1 118 95 263 228 351
77 51 118 69 237 108 103 34 148 34 262 4z m-935 -941 c28 -29 36 -52 62 -173
7 -33 13 -62 14 -65 1 -3 9 -32 19 -65 10 -33 20 -67 22 -75 2 -8 13 -49 24
-90 12 -41 23 -86 26 -100 3 -14 9 -41 14 -60 10 -36 18 -96 25 -188 l4 -53
-37 5 c-20 3 -63 10 -94 16 -31 6 -70 13 -85 15 -15 2 -50 8 -77 13 -44 9 -61
6 -183 -34 -75 -24 -139 -41 -144 -38 -9 5 -5 195 6 254 3 19 13 62 22 95 8
33 16 65 17 70 6 27 40 132 46 145 5 8 20 47 36 85 15 39 44 99 65 135 85 147
149 179 218 108z"/>
<path d="M3184 5185 c-22 -22 -23 -28 -19 -142 3 -65 7 -154 9 -198 11 -171
18 -324 21 -415 3 -84 9 -159 19 -241 5 -43 39 -149 48 -149 4 0 8 -5 8 -11 0
-14 51 -86 91 -130 48 -50 130 -141 154 -170 11 -13 49 -67 84 -119 74 -109
149 -206 183 -235 112 -95 194 -136 319 -160 13 -3 35 -7 49 -10 123 -24 195
-29 380 -28 286 3 613 11 640 17 201 42 341 135 523 350 28 33 54 63 57 66 14
12 100 131 136 185 21 33 41 62 44 65 3 3 12 19 20 35 8 17 18 32 21 35 10 8
65 131 74 165 12 45 14 70 30 330 2 33 5 60 5 60 1 0 3 18 5 40 4 45 4 48 40
182 14 54 28 114 31 133 3 19 8 38 10 41 2 4 6 63 9 133 6 139 9 132 -60 116
-22 -5 -51 -11 -65 -13 -49 -9 -115 -28 -150 -44 -41 -18 -160 -135 -160 -158
0 -8 -4 -15 -8 -15 -4 0 -8 -10 -9 -22 -1 -11 -6 -24 -10 -27 -7 -5 -29 -63
-38 -101 -17 -71 -24 -106 -30 -145 -4 -27 -17 -94 -29 -151 -2 -12 -7 -38
-10 -57 -8 -50 -62 -215 -84 -257 -59 -113 -120 -182 -204 -229 -31 -18 -60
-32 -64 -31 -4 1 -10 -2 -13 -7 -6 -9 -110 -44 -146 -49 -11 -2 -31 -6 -45 -9
-104 -25 -542 -26 -660 -1 -8 1 -37 6 -65 11 -41 6 -102 20 -170 39 -46 13
-205 88 -205 97 0 4 -9 10 -19 14 -27 8 -121 101 -158 156 -35 50 -75 133 -93
192 -12 39 -17 94 -25 267 -2 58 -7 116 -10 130 -3 14 -7 39 -10 55 -3 17 -24
68 -46 114 -39 79 -61 110 -118 169 -29 29 -198 142 -215 143 -6 0 -19 2 -30
4 -10 2 -29 -7 -42 -20z"/>
<path d="M4034 4873 c-28 -5 -69 -50 -82 -90 -28 -84 39 -211 124 -237 32 -10
72 10 94 46 24 38 26 140 4 220 -6 26 -9 49 -6 52 3 3 1 7 -4 7 -22 4 -111 5
-130 2z"/>
<path d="M5139 4862 c0 -9 -3 -26 -5 -37 -12 -46 -7 -203 6 -236 20 -48 47
-70 79 -63 38 10 58 31 67 72 4 20 9 44 11 52 2 8 6 50 10 92 7 99 -11 120
-115 132 -45 5 -52 3 -53 -12z"/>
<path d="M4313 4834 c-26 -11 -33 -22 -43 -64 -17 -72 -21 -217 -6 -229 16
-14 89 -17 157 -8 l55 8 -3 93 c-3 100 -18 149 -55 182 -30 28 -65 34 -105 18z"/>
<path d="M4586 4843 c-86 -23 -110 -257 -34 -321 25 -20 104 -21 137 -1 51 31
64 69 58 173 -6 96 -14 137 -29 147 -11 7 -107 9 -132 2z"/>
<path d="M4847 4843 c-3 -5 -8 -26 -11 -48 -7 -42 -13 -80 -21 -130 -7 -46 -8
-145 -1 -152 10 -11 124 -11 165 -1 23 6 41 17 44 27 5 21 0 185 -8 228 -7 39
-37 59 -100 67 -27 4 -52 9 -56 12 -4 2 -10 1 -12 -3z"/>
<path d="M7295 4354 c-5 -1 -35 -5 -65 -7 -181 -16 -342 -92 -479 -225 -133
-130 -205 -288 -217 -477 -5 -62 -12 -96 -23 -109 -18 -21 -246 -172 -401
-267 -58 -35 -106 -67 -108 -71 -2 -4 -8 -8 -13 -8 -5 0 -50 -25 -100 -55 -50
-30 -94 -55 -100 -55 -5 0 -9 -4 -9 -10 0 -5 -4 -10 -9 -10 -8 0 -187 -101
-231 -130 -8 -6 -22 -13 -30 -17 -8 -3 -26 -14 -40 -23 -14 -10 -56 -34 -95
-55 -38 -21 -72 -41 -75 -44 -3 -4 -27 -18 -55 -33 -46 -23 -366 -204 -436
-245 -35 -21 -36 -30 -6 -38 12 -4 36 -13 52 -20 17 -7 107 -45 200 -85 192
-81 232 -98 260 -111 11 -5 78 -33 149 -63 l129 -54 61 31 c34 18 63 34 66 37
3 3 88 47 190 99 102 52 250 127 329 168 211 109 666 336 739 368 59 26 67 28
110 17 26 -7 58 -15 72 -19 14 -3 79 -7 145 -8 175 -3 311 34 447 124 178 117
297 291 336 491 12 65 5 257 -12 315 -9 33 -18 66 -18 73 -1 6 -5 12 -8 12
-10 0 -60 -66 -60 -78 0 -6 -3 -12 -8 -14 -4 -1 -25 -30 -47 -63 -21 -33 -42
-61 -47 -63 -4 -2 -8 -8 -8 -12 0 -8 -14 -29 -90 -138 -16 -23 -30 -46 -30
-50 0 -5 -15 -22 -32 -39 -73 -69 -159 -95 -244 -74 -26 7 -97 44 -158 82 -61
39 -145 92 -186 118 -152 95 -196 177 -166 310 5 20 60 117 76 131 3 3 18 25
35 50 16 25 42 62 58 83 16 20 25 37 20 37 -4 0 -3 4 3 8 16 11 145 203 142
212 -2 4 -7 6 -13 4z"/>
<path d="M3975 4200 c-8 -12 3 -104 17 -152 17 -56 45 -77 114 -84 96 -10 112
24 62 132 -28 60 -51 80 -112 98 -63 19 -73 19 -81 6z"/>
<path d="M4286 4189 c-32 -5 -60 -10 -62 -12 -2 -1 2 -20 7 -42 6 -22 13 -58
16 -79 16 -113 86 -182 139 -137 43 35 66 97 64 175 -1 87 -44 112 -164 95z"/>
<path d="M5003 4168 c-51 -25 -56 -143 -11 -234 33 -65 53 -67 111 -10 61 60
81 99 74 148 -10 77 -105 129 -174 96z"/>
<path d="M4605 4152 c-22 -4 -65 -45 -65 -61 0 -5 -5 -11 -10 -13 -6 -2 -12
-28 -14 -58 -5 -84 27 -132 95 -144 64 -11 104 13 136 84 40 90 17 173 -52
186 -41 8 -73 10 -90 6z"/>
<path d="M2169 3906 c-3 -3 -32 -8 -65 -11 -76 -7 -83 -9 -167 -35 -62 -19
-137 -55 -176 -84 -60 -45 -132 -131 -162 -192 -28 -60 -33 -81 -35 -155 -2
-73 2 -95 24 -150 15 -35 40 -84 55 -107 28 -43 125 -142 136 -139 3 0 24 -8
46 -20 58 -30 254 -89 391 -118 11 -2 53 -11 94 -20 162 -36 256 -57 280 -61
14 -3 75 -16 137 -29 61 -14 122 -26 135 -29 13 -2 52 -11 89 -20 36 -9 76
-18 90 -20 13 -2 24 -5 24 -6 0 -1 7 -3 15 -5 50 -10 187 -47 260 -70 47 -14
90 -27 97 -28 7 -2 16 -6 19 -10 4 -4 14 -7 22 -7 24 0 145 -62 182 -93 19
-16 67 -60 105 -97 88 -85 139 -120 165 -113 23 6 135 122 177 184 74 108 120
221 124 302 4 74 -12 83 -171 102 -155 19 -228 45 -414 149 -11 6 -25 14 -30
18 -6 4 -72 48 -146 96 -74 49 -174 118 -222 153 -48 35 -131 96 -185 134 -53
39 -102 75 -108 80 -6 6 -18 15 -27 20 -48 30 -213 150 -216 157 -2 4 -9 8
-16 8 -7 0 -21 9 -31 20 -10 11 -22 20 -27 20 -8 0 -64 36 -78 50 -6 6 -52 31
-120 66 -72 36 -121 49 -190 49 -36 0 -68 3 -71 8 -3 4 -8 5 -10 3z"/>
<path d="M4241 2582 c-24 -77 -61 -141 -107 -187 -13 -13 -24 -28 -24 -33 0
-9 237 -112 258 -112 7 0 12 -4 12 -10 0 -5 6 -10 14 -10 11 0 103 -37 256
-103 14 -5 27 -11 30 -12 3 -1 18 -7 33 -13 16 -7 30 -12 31 -12 2 0 29 -11
60 -25 31 -14 58 -25 61 -25 3 0 42 -17 87 -36 46 -20 133 -56 193 -81 61 -25
124 -51 140 -58 32 -15 126 -54 215 -90 91 -37 283 -116 310 -128 14 -6 27
-11 30 -12 3 -1 19 -7 35 -15 70 -30 101 -43 183 -77 48 -19 98 -40 112 -46
14 -6 27 -11 30 -12 3 -1 23 -9 45 -19 22 -10 56 -24 75 -31 67 -26 215 -90
230 -100 8 -6 40 -40 70 -77 30 -37 59 -67 63 -67 5 -1 68 -23 140 -50 300
-112 410 -152 420 -154 7 -1 14 -4 17 -7 5 -5 50 -21 97 -35 19 -5 32 11 108
124 78 117 92 151 65 151 -5 0 -46 17 -92 39 -46 21 -117 53 -158 71 -41 18
-117 52 -168 76 -52 24 -96 44 -98 44 -2 0 -30 13 -63 29 -52 25 -72 29 -157
30 -79 2 -107 6 -148 25 -86 40 -216 101 -331 156 -60 29 -150 71 -200 95 -49
23 -130 61 -180 85 -49 23 -130 62 -180 85 -49 24 -144 69 -210 100 -66 31
-147 70 -180 85 -33 15 -118 56 -190 90 -71 34 -168 80 -215 102 -208 98 -262
124 -370 175 -182 87 -254 120 -265 123 -5 1 -19 9 -30 16 -11 8 -22 14 -25
14 -3 0 -16 -35 -29 -78z"/>
<path d="M4195 2150 c-27 -16 -56 -33 -62 -40 -7 -6 -13 -8 -13 -6 0 5 -48
-19 -192 -97 -27 -14 -48 -24 -48 -21 0 2 -21 -9 -47 -24 -27 -16 -243 -126
-481 -245 -391 -195 -437 -216 -470 -211 -61 10 -104 13 -182 14 -70 0 -95 -2
-162 -16 -15 -3 -31 -6 -35 -6 -24 -2 -119 -41 -179 -73 -236 -127 -387 -364
-398 -623 -3 -91 13 -216 37 -274 l13 -31 32 44 c17 24 35 49 39 54 4 6 35 51
67 100 32 50 63 91 68 93 4 2 8 8 8 14 0 20 124 181 154 199 74 46 175 53 246
17 59 -30 393 -250 411 -270 36 -43 51 -81 54 -141 2 -32 -1 -71 -6 -86 -8
-21 -112 -187 -142 -226 -16 -22 -173 -253 -185 -274 l-13 -22 68 5 c81 7 165
28 247 62 34 14 69 28 79 31 9 3 17 9 17 14 0 5 7 9 15 9 8 0 15 5 15 10 0 6
4 10 10 10 24 0 154 125 202 195 63 91 109 203 125 305 8 46 8 184 1 240 l-6
46 76 49 c43 28 79 53 80 57 2 5 8 8 12 8 5 0 53 28 107 61 142 89 503 299
513 299 4 0 10 4 12 8 3 7 162 99 318 184 30 17 84 47 120 68 36 21 90 51 120
68 30 16 78 42 105 57 28 16 67 38 88 49 20 11 34 23 30 26 -5 4 -62 28 -128
55 -66 26 -133 53 -150 60 -16 7 -73 30 -125 50 -120 48 -161 64 -182 76 -10
5 -22 9 -28 9 -6 0 -29 9 -53 20 -54 25 -126 50 -141 49 -6 -1 -33 -14 -61
-29z"/>
</g>
</svg>
